<svg height='100px' width='100px'  fill="#FFFFFF" xmlns="http://www.w3.org/2000/svg" xmlns:xlink="http://www.w3.org/1999/xlink" version="1.1" x="0px" y="0px" viewBox="0 0 96 96" enable-background="new 0 0 96 96" xml:space="preserve"><g><path d="M50.816,43.25c4.443-7.929,17.004-12.589,17.138-12.637l1.407-0.515l-1.367-3.755l-1.407,0.512   c-0.615,0.223-14.656,5.404-19.584,15.011c-3.287-8.298,2.709-20.07,2.773-20.194l0.687-1.328l-3.542-1.846l-0.693,1.328   c-0.323,0.618-7.593,14.764-2.336,24.902c-8.821-2.94-13.208-16.458-13.254-16.601l-0.455-1.424L26.371,27.9l0.451,1.432   c0.21,0.666,5.097,15.81,15.968,19.254c-1.848,0.924-4.057,1.391-6.585,1.391c-7.14,0-14.463-3.715-14.534-3.751l-1.33-0.688   l-1.847,3.545l1.333,0.692c0.838,0.437,8.419,4.258,16.34,4.258c3.236-0.001,6.112-0.653,8.569-1.941   c-2.922,8.805-16.467,13.227-16.61,13.271l-1.425,0.455l1.197,3.807l1.431-0.447c0.718-0.226,16.91-5.429,19.588-17.136   c3.472,8.72-2.667,22.225-2.732,22.367l-0.628,1.354l3.62,1.695l0.636-1.36c0.293-0.627,6.87-14.899,2.935-25.275   c7.786,4.422,12.59,16.992,12.637,17.12l0.504,1.427l3.766-1.37l-0.507-1.407c-0.234-0.651-5.643-15.408-15.799-19.958   c1.472-0.41,3.131-0.617,4.951-0.617c7.695,0,15.764,3.642,16.104,3.797l1.358,0.631l1.694-3.621l-1.36-0.634   c-0.922-0.431-9.247-4.207-17.727-4.207C55.557,41.983,53.023,42.409,50.816,43.25z"></path><path d="M48,13.97c-18.764,0-34.03,15.266-34.03,34.03c0,18.764,15.266,34.029,34.03,34.029c18.764,0,34.029-15.266,34.029-34.029   C82.029,29.236,66.764,13.97,48,13.97z M48,81.029c-18.213,0-33.03-14.816-33.03-33.029S29.787,14.97,48,14.97   S81.029,29.787,81.029,48S66.213,81.029,48,81.029z"></path><path d="M6.5,6.5v83h83v-83H6.5z M48,84.529c-20.143,0-36.53-16.387-36.53-36.529c0-20.143,16.387-36.53,36.53-36.53   c20.143,0,36.529,16.388,36.529,36.53C84.529,68.143,68.143,84.529,48,84.529z"></path></g></svg>